<svg width="730" height="288" viewBox="0 0 730 288" fill="none" xmlns="http://www.w3.org/2000/svg">
<rect width="259" height="259" transform="translate(0 14)" fill="#6C316E"/>
<path d="M72.1083 177H89.7575L93.8832 162.468H115.475L119.601 177H137.25L114.971 110.85H94.3875L72.1083 177ZM104.519 125.244H104.839L111.991 150.366H97.3672L104.519 125.244ZM155.473 177.688C161.982 177.688 166.933 174.845 169.776 169.94H170.096V177H186.325V142.939C186.325 132.808 177.477 126.024 164.045 126.024C150.155 126.024 141.858 132.671 141.078 142.389L141.033 142.985H155.656L155.748 142.527C156.298 139.96 158.865 137.943 163.22 137.943C167.759 137.943 170.096 140.189 170.096 143.81V146.286L158.728 147.019C145.846 147.89 138.603 153.162 138.603 162.56V162.606C138.603 171.316 145.433 177.688 155.473 177.688ZM154.556 161.551V161.505C154.556 158.526 156.802 156.646 161.341 156.371L170.096 155.775V159.122C170.096 163.339 166.383 166.456 161.157 166.456C157.169 166.456 154.556 164.669 154.556 161.551Z" fill="#AE65B0"/>
<path d="M192.845 159L200 166.155L207.155 159L200 151.845L192.845 159ZM200 160.239L203.797 160.239L203.797 157.761L200 157.761L200 160.239ZM211.391 160.239L218.984 160.239L218.984 157.761L211.391 157.761L211.391 160.239ZM226.578 160.239L234.172 160.239L234.172 157.761L226.578 157.761L226.578 160.239ZM241.766 160.239L249.359 160.239L249.359 157.761L241.766 157.761L241.766 160.239ZM256.953 160.239L264.547 160.239L264.547 157.761L256.953 157.761L256.953 160.239ZM272.141 160.239L279.734 160.239L279.734 157.761L272.141 157.761L272.141 160.239ZM287.328 160.239L294.922 160.239L294.922 157.761L287.328 157.761L287.328 160.239ZM302.516 160.239L310.109 160.239L310.109 157.761L302.516 157.761L302.516 160.239ZM317.703 160.239L325.297 160.239L325.297 157.761L317.703 157.761L317.703 160.239ZM332.891 160.239L340.484 160.239L340.484 157.761L332.891 157.761L332.891 160.239ZM348.078 160.239L355.672 160.239L355.672 157.761L348.078 157.761L348.078 160.239ZM363.266 160.239L370.859 160.239L370.859 157.761L363.266 157.761L363.266 160.239ZM378.453 160.239L386.047 160.239L386.047 157.761L378.453 157.761L378.453 160.239ZM393.641 160.239L401.234 160.239L401.234 157.761L393.641 157.761L393.641 160.239ZM408.828 160.239L416.422 160.239L416.422 157.761L408.828 157.761L408.828 160.239ZM424.016 160.239L431.609 160.239L431.609 157.761L424.016 157.761L424.016 160.239ZM439.203 160.239L443 160.239L443 157.761L439.203 157.761L439.203 160.239Z" fill="#EA5C71"/>
<path d="M260.281 85.7655L267.435 92.9203L274.59 85.7655L267.435 78.6108L260.281 85.7655ZM267.435 87.0048L271.101 87.0048L271.101 84.5263L267.435 84.5263L267.435 87.0048ZM278.434 87.0048L285.766 87.0048L285.766 84.5263L278.434 84.5263L278.434 87.0048ZM293.098 87.0048L300.43 87.0048L300.43 84.5263L293.098 84.5263L293.098 87.0048ZM307.762 87.0048L315.094 87.0048L315.094 84.5263L307.762 84.5263L307.762 87.0048ZM322.426 87.0048L329.758 87.0048L329.758 84.5263L322.426 84.5263L322.426 87.0048ZM337.091 87.0048L344.423 87.0048L344.423 84.5263L337.091 84.5263L337.091 87.0048ZM351.755 87.0048L359.087 87.0048L359.087 84.5263L351.755 84.5263L351.755 87.0048ZM366.419 87.0048L373.751 87.0048L373.751 84.5263L366.419 84.5263L366.419 87.0048ZM381.083 87.0048L388.416 87.0048L388.416 84.5263L381.083 84.5263L381.083 87.0048ZM395.748 87.0048L403.08 87.0048L403.08 84.5263L395.748 84.5263L395.748 87.0048ZM410.412 87.0048L417.744 87.0048L417.744 84.5263L410.412 84.5263L410.412 87.0048ZM425.076 87.0048L432.408 87.0048L432.408 84.5263L425.076 84.5263L425.076 87.0048ZM439.741 87.0048L443.407 87.0048L443.407 84.5263L439.741 84.5263L439.741 87.0048Z" fill="#EA5C71"/>
<path d="M466.402 95H469.997L478.21 78.6528V75.7907H464.845V78.5995H474.749V78.8125L466.402 95ZM488.367 95.4792C492.933 95.4792 495.702 91.6054 495.702 85.402V85.3754C495.702 79.1719 492.933 75.3114 488.367 75.3114C483.801 75.3114 481.059 79.1719 481.059 85.3754V85.402C481.059 91.6054 483.801 95.4792 488.367 95.4792ZM488.367 92.697C485.918 92.697 484.52 89.9547 484.52 85.402V85.3754C484.52 80.8226 485.918 78.107 488.367 78.107C490.817 78.107 492.241 80.8226 492.241 85.3754V85.402C492.241 89.9547 490.817 92.697 488.367 92.697Z" fill="black"/>
<path d="M473.652 169H476.94V165.313H479.522V162.477H476.94V149.791H472.081C469.472 153.758 466.743 158.177 464.253 162.504V165.313H473.652V169ZM467.448 162.557V162.357C469.312 159.096 471.535 155.541 473.505 152.533H473.705V162.557H467.448ZM490.145 169.479C494.711 169.479 497.48 165.605 497.48 159.402V159.375C497.48 153.172 494.711 149.311 490.145 149.311C485.579 149.311 482.837 153.172 482.837 159.375V159.402C482.837 165.605 485.579 169.479 490.145 169.479ZM490.145 166.697C487.696 166.697 486.298 163.955 486.298 159.402V159.375C486.298 154.823 487.696 152.107 490.145 152.107C492.595 152.107 494.019 154.823 494.019 159.375V159.402C494.019 163.955 492.595 166.697 490.145 166.697Z" fill="black"/>
<path d="M476.744 126.871H485.636V123.863H476.744V126.871Z" fill="black"/>
<path d="M539.828 123.237H554.152V120.215H539.828V123.237ZM539.828 130.506H554.152V127.497H539.828V130.506ZM572.164 133.501C576.423 133.501 579.339 131.145 579.339 127.763V127.737C579.339 125.074 577.462 123.397 574.64 123.131V123.064C576.943 122.585 578.66 121.001 578.66 118.618V118.591C578.66 115.583 576.091 113.519 572.137 113.519C568.263 113.519 565.641 115.703 565.348 119.031L565.334 119.177H568.529L568.543 119.044C568.716 117.327 570.113 116.248 572.137 116.248C574.187 116.248 575.372 117.287 575.372 119.044V119.071C575.372 120.748 573.961 121.946 571.844 121.946H569.648V124.502H571.911C574.373 124.502 575.864 125.62 575.864 127.644V127.67C575.864 129.454 574.387 130.692 572.164 130.692C569.914 130.692 568.409 129.534 568.223 127.91L568.21 127.763H564.935L564.948 127.923C565.201 131.211 567.957 133.501 572.164 133.501ZM590.015 133.594C594.581 133.594 597.35 129.72 597.35 123.517V123.49C597.35 117.287 594.581 113.426 590.015 113.426C585.449 113.426 582.707 117.287 582.707 123.49V123.517C582.707 129.72 585.449 133.594 590.015 133.594ZM590.015 130.812C587.566 130.812 586.168 128.07 586.168 123.517V123.49C586.168 118.937 587.566 116.222 590.015 116.222C592.464 116.222 593.889 118.937 593.889 123.49V123.517C593.889 128.07 592.464 130.812 590.015 130.812Z" fill="black"/>
<line x1="519" y1="70.8947" x2="519" y2="176.23" stroke="#EA5C71" stroke-width="2.47847"/>
<rect x="614.421" y="96.9187" width="111.531" height="50.8086" rx="4.95694" fill="#FFEDF2"/>
<path d="M635.639 131.876H639.234L640.831 126.91H647.94L649.55 131.876H653.145L646.329 112.666H642.455L635.639 131.876ZM644.279 116.234H644.505L647.088 124.261H641.696L644.279 116.234ZM655.022 131.876H658.616L660.213 126.91H667.322L668.933 131.876H672.527L665.711 112.666H661.837L655.022 131.876ZM663.661 116.234H663.888L666.47 124.261H661.079L663.661 116.234Z" fill="#820014"/>
<path d="M703.208 117.425C703.789 116.844 703.789 115.903 703.208 115.322C702.92 115.032 702.539 114.888 702.158 114.888C701.777 114.888 701.397 115.033 701.107 115.323L696.21 120.217L691.314 115.324C691.023 115.032 690.643 114.888 690.262 114.888C689.882 114.888 689.501 115.032 689.211 115.324C688.63 115.905 688.63 116.846 689.211 117.427L694.108 122.325L689.211 127.22C688.63 127.801 688.63 128.742 689.211 129.323C689.792 129.904 690.733 129.904 691.313 129.323L696.21 124.423L701.108 129.32C701.689 129.901 702.629 129.901 703.21 129.32C703.791 128.74 703.791 127.799 703.21 127.218L698.313 122.32L703.208 117.425Z" fill="#820014"/>
</svg>
