<svg width="730" height="288" viewBox="0 0 730 288" fill="none" xmlns="http://www.w3.org/2000/svg">
<rect width="259" height="259" transform="translate(0 14)" fill="#00246F"/>
<path d="M71.1083 177H88.7575L92.8832 162.468H114.475L118.601 177H136.25L113.971 110.85H93.3875L71.1083 177ZM103.519 125.244H103.839L110.991 150.366H96.3672L103.519 125.244ZM154.473 177.688C160.982 177.688 165.933 174.845 168.776 169.94H169.096V177H185.325V142.939C185.325 132.808 176.477 126.024 163.045 126.024C149.155 126.024 140.858 132.671 140.078 142.389L140.033 142.985H154.656L154.748 142.527C155.298 139.96 157.865 137.943 162.22 137.943C166.759 137.943 169.096 140.189 169.096 143.81V146.286L157.728 147.019C144.846 147.89 137.603 153.162 137.603 162.56V162.606C137.603 171.316 144.433 177.688 154.473 177.688ZM153.556 161.551V161.505C153.556 158.526 155.802 156.646 160.341 156.371L169.096 155.775V159.122C169.096 163.339 165.383 166.456 160.157 166.456C156.169 166.456 153.556 164.669 153.556 161.551Z" fill="#70B5E8"/>
<path d="M187.845 159L195 166.155L202.155 159L195 151.845L187.845 159ZM195 160.239L198.632 160.239L198.632 157.761L195 157.761L195 160.239ZM205.897 160.239L213.162 160.239L213.162 157.761L205.897 157.761L205.897 160.239ZM220.426 160.239L227.691 160.239L227.691 157.761L220.426 157.761L220.426 160.239ZM234.956 160.239L242.221 160.239L242.221 157.761L234.956 157.761L234.956 160.239ZM249.485 160.239L256.75 160.239L256.75 157.761L249.485 157.761L249.485 160.239ZM264.015 160.239L271.279 160.239L271.279 157.761L264.015 157.761L264.015 160.239ZM278.544 160.239L285.809 160.239L285.809 157.761L278.544 157.761L278.544 160.239ZM293.074 160.239L300.338 160.239L300.338 157.761L293.074 157.761L293.074 160.239ZM307.603 160.239L314.868 160.239L314.868 157.761L307.603 157.761L307.603 160.239ZM322.132 160.239L329.397 160.239L329.397 157.761L322.132 157.761L322.132 160.239ZM336.662 160.239L343.927 160.239L343.927 157.761L336.662 157.761L336.662 160.239ZM351.191 160.239L358.456 160.239L358.456 157.761L351.191 157.761L351.191 160.239ZM365.721 160.239L372.985 160.239L372.985 157.761L365.721 157.761L365.721 160.239ZM380.25 160.239L387.515 160.239L387.515 157.761L380.25 157.761L380.25 160.239ZM394.779 160.239L402.044 160.239L402.044 157.761L394.779 157.761L394.779 160.239ZM409.309 160.239L416.574 160.239L416.574 157.761L409.309 157.761L409.309 160.239ZM423.838 160.239L431.103 160.239L431.103 157.761L423.838 157.761L423.838 160.239ZM438.368 160.239L442 160.239L442 157.761L438.368 157.761L438.368 160.239Z" fill="#EA5C71"/>
<path d="M259.281 85.7655L266.435 92.9203L273.59 85.7655L266.435 78.6108L259.281 85.7655ZM266.435 87.0048L270.101 87.0048L270.101 84.5263L266.435 84.5263L266.435 87.0048ZM277.434 87.0048L284.766 87.0048L284.766 84.5263L277.434 84.5263L277.434 87.0048ZM292.098 87.0048L299.43 87.0048L299.43 84.5263L292.098 84.5263L292.098 87.0048ZM306.762 87.0048L314.094 87.0048L314.094 84.5263L306.762 84.5263L306.762 87.0048ZM321.426 87.0048L328.759 87.0048L328.759 84.5263L321.426 84.5263L321.426 87.0048ZM336.091 87.0048L343.423 87.0048L343.423 84.5263L336.091 84.5263L336.091 87.0048ZM350.755 87.0048L358.087 87.0048L358.087 84.5263L350.755 84.5263L350.755 87.0048ZM365.419 87.0048L372.751 87.0048L372.751 84.5263L365.419 84.5263L365.419 87.0048ZM380.084 87.0048L387.416 87.0048L387.416 84.5263L380.084 84.5263L380.084 87.0048ZM394.748 87.0048L402.08 87.0048L402.08 84.5263L394.748 84.5263L394.748 87.0048ZM409.412 87.0048L416.744 87.0048L416.744 84.5263L409.412 84.5263L409.412 87.0048ZM424.076 87.0048L431.409 87.0048L431.409 84.5263L424.076 84.5263L424.076 87.0048ZM438.741 87.0048L442.407 87.0048L442.407 84.5263L438.741 84.5263L438.741 87.0048Z" fill="#EA5C71"/>
<path d="M465.486 94.6986H469.08L477.294 78.3513V75.4892H463.929V78.2981H473.833V78.5111L465.486 94.6986ZM487.451 95.1778C492.017 95.1778 494.786 91.304 494.786 85.1005V85.0739C494.786 78.8705 492.017 75.01 487.451 75.01C482.885 75.01 480.143 78.8705 480.143 85.0739V85.1005C480.143 91.304 482.885 95.1778 487.451 95.1778ZM487.451 92.3956C485.002 92.3956 483.604 89.6533 483.604 85.1005V85.0739C483.604 80.5212 485.002 77.8055 487.451 77.8055C489.901 77.8055 491.325 80.5212 491.325 85.0739V85.1005C491.325 89.6533 489.901 92.3956 487.451 92.3956Z" fill="black"/>
<path d="M464.575 169.053H477.914V166.204H469.221V165.924L473.068 162.197C476.569 158.829 477.621 157.098 477.621 154.915V154.875C477.621 151.64 474.932 149.364 471.191 149.364C467.184 149.364 464.389 151.867 464.389 155.448L464.402 155.488L467.597 155.501L467.61 155.448C467.61 153.464 468.981 152.12 471.018 152.12C473.015 152.12 474.226 153.398 474.226 155.168V155.208C474.226 156.686 473.494 157.657 470.885 160.293L464.575 166.736V169.053ZM488.763 169.532C493.329 169.532 496.098 165.658 496.098 159.455V159.428C496.098 153.225 493.329 149.364 488.763 149.364C484.197 149.364 481.455 153.225 481.455 159.428V159.455C481.455 165.658 484.197 169.532 488.763 169.532ZM488.763 166.75C486.314 166.75 484.916 164.007 484.916 159.455V159.428C484.916 154.875 486.314 152.16 488.763 152.16C491.212 152.16 492.637 154.875 492.637 159.428V159.455C492.637 164.007 491.212 166.75 488.763 166.75Z" fill="black"/>
<path d="M475.744 126.871H484.636V123.863H475.744V126.871Z" fill="black"/>
<path d="M538.882 123.237H553.206V120.215H538.882V123.237ZM538.882 130.506H553.206V127.497H538.882V130.506ZM571.204 133.594C575.357 133.594 578.272 130.865 578.272 126.871V126.845C578.272 123.171 575.676 120.508 572.095 120.508C570.285 120.508 568.794 121.28 567.995 122.572H567.769L568.302 116.728H577.154V113.905H565.626L564.694 125.154H567.636C567.862 124.728 568.182 124.355 568.528 124.063C569.233 123.424 570.165 123.104 571.243 123.104C573.44 123.104 575.011 124.675 575.011 126.911V126.938C575.011 129.201 573.467 130.785 571.217 130.785C569.247 130.785 567.796 129.534 567.543 127.963L567.529 127.87H564.361L564.374 128.043C564.627 131.198 567.276 133.594 571.204 133.594ZM588.962 133.594C593.528 133.594 596.297 129.72 596.297 123.517V123.49C596.297 117.287 593.528 113.426 588.962 113.426C584.396 113.426 581.654 117.287 581.654 123.49V123.517C581.654 129.72 584.396 133.594 588.962 133.594ZM588.962 130.812C586.512 130.812 585.115 128.07 585.115 123.517V123.49C585.115 118.937 586.512 116.222 588.962 116.222C591.411 116.222 592.836 118.937 592.836 123.49V123.517C592.836 128.07 591.411 130.812 588.962 130.812Z" fill="black"/>
<line x1="518" y1="70.8947" x2="518" y2="176.23" stroke="#EA5C71" stroke-width="2.47847"/>
<rect x="613.421" y="96.9187" width="111.531" height="50.8086" rx="4.95694" fill="#D1FFE7"/>
<path d="M634.639 131.876H638.234L639.831 126.91H646.94L648.551 131.876H652.145L645.329 112.666H641.455L634.639 131.876ZM643.279 116.234H643.505L646.088 124.261H640.696L643.279 116.234ZM654.022 131.876H657.616L659.214 126.91H666.322L667.933 131.876H671.527L664.711 112.666H660.838L654.022 131.876ZM662.661 116.234H662.888L665.47 124.261H660.079L662.661 116.234Z" fill="#007546"/>
<path d="M703.885 117.366C703.885 117.683 703.764 118 703.522 118.242L693.608 128.156C693.367 128.399 693.05 128.519 692.732 128.519C692.415 128.519 692.098 128.398 691.856 128.156L686.899 123.199C686.657 122.958 686.536 122.641 686.536 122.323C686.536 121.615 687.115 121.084 687.775 121.084C688.092 121.084 688.41 121.205 688.651 121.447L692.732 125.529L701.771 116.491C702.011 116.248 702.329 116.127 702.646 116.127C703.308 116.127 703.885 116.657 703.885 117.366Z" fill="#007546"/>
</svg>
