<svg width="585" height="585" fill="none" xmlns="http://www.w3.org/2000/svg"><path d="M264.214 175.995l.979.451c1.305.108 2.598.239 3.849.652.201.019.361.073.449.174.135.053.272.096.406.157.495.224.351.708.084 1.045 1.705 3.722 5.512 4.923 9.57 5.388 6.172.708 12.409.686 18.609.999 2.866.144 13.696 1.262 22.026.25 2.474-.599 5.762-1.475 8.023-2.375 1.958-1.31 2.799-3.185 1.758-5.86-.244-.624 2.555-1.516 2.847-.763.558 1.435.619 2.664.333 3.74.245-.084.475-.146.685-.195.498-.313.998-.625 1.494-.942.496-13.514-2.572-28.534-15.533-35.325-4.141-2.17-8.667-3.506-13.294-4.128-4.572-.287-9.212-.349-13.737.305-.188.049-.366.084-.557.135-4.571 1.22-8.054 2.391-10.76 3.502-11.424 6.295-17.13 19.893-17.231 32.79zm34.379-5.115c9.772.217 19.899 1.296 29.081 4.828.174.067-1.919 1.238-2.691.941-7.623-2.932-16.089-4.154-24.211-4.543-8.535-.409-18.408-.61-26.184 3.442-.481.251-3.35.615-2.159-.005 7.889-4.111 17.411-4.856 26.164-4.663zm71.786 83.818c2.491-5.367 5.719-10.543 9.002-15.575a143.475 143.475 0 0126.078 21.826c-2.151 2.092-4.376 4.136-6.425 6.363-1.883 2.046-3.604 4.222-5.265 6.446-7.264-6.876-15.019-13.685-23.39-19.06zm-2.925.812a61.781 61.781 0 00-1.497 3.548c-.059-1.535-.13-3.071-.209-4.61.571.348 1.141.699 1.706 1.062zm24.764 20.348c-3.261 4.506-6.374 9.132-10.037 13.324-5.136-3.715-10.499-7.13-15.91-10.404.027-3.672-.006-7.326-.069-10.94.583-3.77 1.731-7.439 3.241-11.021 8.151 5.515 15.658 12.341 22.775 19.041zm-11.462-38.832c2.4-3.649 4.774-7.225 6.857-10.748 9.792 6.666 19.058 14.363 27.192 22.971-.331.133-.598.31-.696.524-1.648 3.595-4.06 6.517-6.715 9.247a145.746 145.746 0 00-26.638-21.994zm-12.337 16.453a81.532 81.532 0 00-2.816-1.644c-.432-7.221-1.117-14.461-2.173-21.625a134.124 134.124 0 0114.198 7.801c-3.279 5.006-6.571 10.141-9.209 15.468zm45.472 45.273c3.072 3.849 6.084 8.09 7.587 12.767a31.847 31.847 0 00-4.628 4.436c-3.064.66-6.138 1.279-9.219 1.867-1.193-4.087-3.357-7.769-6.019-11.125 4.186-2.506 8.251-5.198 12.279-7.945zm13.804 10.904l-1.878 1.008a27.31 27.31 0 011.878-1.008zm-15.133-12.543c-4.008 2.732-8.052 5.409-12.22 7.903-.031.018-.052.037-.08.056-2.999-3.468-6.463-6.585-9.819-9.439-2.357-2.005-4.801-3.905-7.296-5.74.591-.086 1.205-.279 1.42-.523 3.353-3.796 6.273-7.923 9.228-12.022l1.258 1.189c6.18 5.846 12.12 11.987 17.509 18.576zm21.345 8.47c-3.483.758-6.863 2.194-9.929 4.16-1.715-4.595-4.823-8.704-7.859-12.51 3.447-2.375 6.881-4.771 10.338-7.132a117.873 117.873 0 016.619 14.874c.129.356.451.543.831.608zm-70.874-77.907a175.564 175.564 0 00-3.143-15.273 22.914 22.914 0 01-.025-1.779 192.455 192.455 0 0126.902 15.085c-.701.072-1.526.301-1.75.683-1.837 3.135-3.903 6.304-6.015 9.523a137.391 137.391 0 00-15.155-8.171c-.243-.111-.529-.122-.814-.068zm53.193 23.087c8.354 9.102 15.41 19.203 20.486 30.171a231.528 231.528 0 00-8.867 5.682c-5.284-9.464-11.822-18.325-19.288-26.348 2.914-2.858 5.682-5.812 7.669-9.505zm-9.631 11.411c7.314 7.954 13.702 16.727 18.851 26.072-3.565 2.43-7.101 4.901-10.654 7.347-4.71-5.768-9.934-11.122-15.27-16.305a761.433 761.433 0 00-4.198-4.051c2.008-2.746 4.067-5.454 6.324-8.009 1.573-1.783 3.262-3.426 4.947-5.054zm22.264 26.296a237.948 237.948 0 018.736-5.616c3.14 7.18 5.404 14.73 6.636 22.604-2.921-.606-5.917-.627-8.865-.151.441-.255.721-.646.558-1.095a119.725 119.725 0 00-7.065-15.742zm-234.436 37.46l-5.439-.759c1.837.172 3.675.329 5.513.488l-.074.271zm38.92-46.187v.009a256.63 256.63 0 00-10.668 8.238c3.37-3.015 6.922-5.817 10.668-8.247zm-39.77 44.579a824.993 824.993 0 01-11.435-1.111c.385-.137.681-.321.731-.531 1.085-4.592 2.812-9.037 4.946-13.336a896.847 896.847 0 018.222 7.597c.088.081.221.126.376.147-1.164 2.338-2.131 4.749-2.84 7.234zm20.947-99.184c-.02-.036-.051-.062-.078-.092a190.808 190.808 0 0125.639-14.348c-1.471 5.574-2.61 11.251-3.495 16.984-.229.012-.47.068-.707.189-5.312 2.717-10.302 6.002-15.012 9.681-1.867-4.251-3.914-8.419-6.347-12.414zm-27.222 80.303a565.18 565.18 0 00-10.539-9.277c5.37-10.393 11.926-20.212 19.022-29.414.41-.534.832-1.066 1.25-1.597 2.194 5.67 4.414 11.325 6.978 16.811-5.846 7.156-11.959 15.034-16.711 23.477zm-14.354 16.757a1 1 0 00-.17.004 30.46 30.46 0 00-1.005-1.36 28.94 28.94 0 00-3.367-4.991c1.969-5.952 4.402-11.741 7.189-17.368a591.864 591.864 0 0110.458 9.258c-2.582 4.913-4.668 10.005-5.931 15.254a782.424 782.424 0 01-7.174-.797zm60.555-54.404c-1.625-3.271-3.092-6.614-4.477-9.992a61.336 61.336 0 014.977-3.516 491.851 491.851 0 00-.471 12.287c-.011.403-.019.813-.029 1.221zm-28.602 16.053c2.082 4.278 4.407 8.435 7.135 12.396-.646.686-1.29 1.373-1.924 2.066-4.54 4.967-9.132 10.503-12.524 16.567a830.014 830.014 0 00-8.561-7.88c4.406-8.217 10.192-15.878 15.715-22.947l.159-.202zm31.342-53.876a216.844 216.844 0 00-.799 6.295c-.634 4.389-1.098 8.858-1.217 13.011-.021.719-.037 1.426-.053 2.129-.043.73-.096 1.46-.135 2.19-.634.033-1.527.21-1.781.368a56.976 56.976 0 00-3.754 2.541c-2.278-5.644-4.393-11.36-6.767-16.957 4.561-3.636 9.393-6.881 14.506-9.577zm-79.424 79.855a28.684 28.684 0 013.937 2.388 58.258 58.258 0 01-3.937-2.388zm69.844-50.103c1.934 4.648 4.021 9.228 6.521 13.622.049.084.12.147.203.2a390.555 390.555 0 00-.042 4.974c-.31.066-.573.143-.693.218-6.86 4.216-12.982 9.635-18.613 15.42-2.738-4.107-5.064-8.416-7.146-12.847 5.853-7.43 12.385-15.318 19.77-21.587zm-7.288-18.247c2.328 5.584 4.429 11.274 6.719 16.877-7.51 6.039-14.036 13.794-20.054 21.132-2.512-5.551-4.699-11.264-6.901-16.973 6.065-7.493 12.782-14.761 20.236-21.036zm-25.025 23.278c-7.321 9.206-14.062 19.166-19.603 29.701-4.024-3.41-8.1-6.757-12.251-10.006a.553.553 0 00-.136-.073c5.923-14.396 15.298-27.366 26.616-38.641 2.62 5.51 4.873 11.195 7.083 16.899-.573.705-1.146 1.412-1.709 2.12zm-32.935 21.979a420.329 420.329 0 0112.157 10.003c-2.769 5.482-5.202 11.114-7.213 16.875a32.773 32.773 0 00-1.052-1.005 29.584 29.584 0 00-9.285-5.758c.168-.148.285-.32.312-.512.946-6.784 2.689-13.322 5.081-19.603zm36.771-26.681c-2.164-5.569-4.394-11.109-7.015-16.458 6.491-6.209 13.554-11.879 20.932-16.961 2.453 4.126 4.521 8.424 6.408 12.807-7.445 6.14-14.168 13.244-20.325 20.612zm144.162 11.972c-5.034-.014-10.068-.068-15.103-.144.718-4.673 1.058-9.365 1.206-14.068 5.576.245 11.156.403 16.743.421.251 0 .471-.052.663-.135-.629 4.802-1.717 9.506-3.509 13.862a.088.088 0 000 .064zm-44.456-18.313c-7.509-.536-15.018-1.055-22.534-1.443.331-3.142.735-6.277 1.02-9.383 5.818-1.886 10.178-6.267 15.28-9.508 3.372 6.123 5.237 13.164 6.234 20.334zm-24.392-48.775c.723 2.28 1.53 4.599 2.441 6.886l-.001.029c-.405.193-.709.463-.715.791-.057 3.205-.436 6.427-.861 9.655-.129-.062-.322-.102-.612-.102h-17.079c-.443 0-1.054.285-1.467.614 1.227-5.683 2.991-11.242 5.438-16.407 4.18-.552 8.362-1.103 12.568-1.421.099-.007.196-.023.288-.045zm60.606 1.69c.85.065 1.697.152 2.543.241l3.446.754c-.019.039-.026.075-.01.108 4.913 9.828 6.073 21.379 6.432 32.212.174 5.256.145 10.791-.432 16.243a1.727 1.727 0 00-.66-.119c-5.643-.017-11.278-.178-16.91-.428.092-4.515.044-9.036.018-13.559.946-5.207.357-10.452-.51-15.696.089.015.19.024.307.027 4.921.127 9.625 1.772 14.55 1.899 1.184.03 2.994-1.732 1.063-1.782-4.92-.126-9.625-1.772-14.549-1.898-.519-.014-1.158.317-1.55.697-.843-4.933-1.845-9.863-1.945-14.758-.005-.237-.286-.349-.669-.362a90.774 90.774 0 001.414-5.129c1.941 1.328 4.365 1.694 6.717 1.291.126.133.36.231.745.259zm-58.334 64.183c-1.263-5.377-1.132-10.876-.63-16.374 7.68.396 15.353.93 23.026 1.478.58 5.037.776 10.096.804 14.901.004.652 2.853.178 2.847-.763a160.853 160.853 0 00-.286-8.943c.149-.114.253-.242.276-.379.249-1.434.525-2.948.836-4.498 7.656.546 15.314 1.067 22.977 1.443-.134 4.735-.461 9.459-1.16 14.164-16.229-.273-32.458-.761-48.69-1.029zm27.326-16.728c1.544-6.967 4.002-14.362 8.762-19.142.125.042.251.086.38.132 4.294 3.079 8.283 6.688 13.448 8.1.024 4.112.058 8.223-.014 12.328-7.531-.372-15.053-.883-22.576-1.418zm-30.134-50.868c-.241.02-.481.048-.723.069l.695-.167.028.098zm52.713 37.881l-.055-.026v-11.113c.439 3.192.69 6.381.451 9.553-.241.181-.401.4-.401.651l.005.935zm-20.261-.863c1.108-2.988 2.332-5.362 3.5-5.695.248-.071.554-.086.898-.061-1.729 1.667-3.176 3.62-4.398 5.756zm-32.67 30.534c-4.979-.073-9.959-.126-14.939-.137-2.838-5.249-4.188-11.156-4.713-17.165.198.203.528.34 1.009.341 6.084.019 12.16.207 18.232.491-.527 5.524-.725 11.053.411 16.47zm-17.733-47.05c.127.043.306.068.545.068h17.08c.506 0 1.23-.372 1.629-.755-.865 6.488-1.825 12.995-.684 19.424-.271 3.202-.679 6.435-1.027 9.676-6.069-.284-12.141-.471-18.222-.491-.639-.002-1.104.319-1.327.715-.309-4.335-.224-8.702.011-12.892.292-5.194.921-10.513 1.995-15.745z" fill="#E00"/><path d="M297.513 224.012c2.239-2.846 6.11-2.299 8.645-.261.525.423-2.024 1.529-2.674 1.006-.567-.456-1.185-.935-1.874-1.194-.803-.301-.962-.381-1.501.303-.451.574-3.227.947-2.596.146zm-30.37-30.557c-.875-.649-2.028-.678-3.048-.459-.518.111-1.358.628-1.184 1.275.172.642 1.027.627 1.56.532-.012.003-.007.004.028.001l.068.019c.166.047.353.166.509.31.489.45.78 1.051.997 1.669.425 1.208 3.259.406 2.847-.763-.359-1.028-.893-1.926-1.777-2.584zm64.767 6.64c.8-2.279 2.886-3.841 5.351-3.311.649.14.748.824.339 1.265-.476.514-1.211.66-1.88.553-.007.013-.058.031-.087.037l-.102.062c.061-.046.029-.013-.094.101-.395.443-.63.981-.826 1.537-.382 1.089-3.225 1.249-2.701-.244zm3.677-1.507c.018.004.023.007.031.01l.036-.003c-.023-.004-.046-.002-.067-.007zm-60.999-23.04c7.776-4.052 17.649-3.85 26.184-3.442 8.123.389 16.588 1.61 24.211 4.543.772.297 2.865-.874 2.691-.941-9.183-3.532-19.309-4.611-29.081-4.828-8.753-.194-18.275.552-26.165 4.663-1.19.621 1.678.256 2.16.005zm181.472 72.827c.77.251 3.349-.924 2.295-1.267-3.555-1.158-7.173-1.939-10.855-2.565 1.389-2.249 2.654-4.573 4.105-6.782.398-.606-.343-1.085-.853-1.138-.732-.077-1.456.245-1.858.856-1.306 1.988-2.456 4.074-3.685 6.11-.989-2.563-1.655-5.229-1.749-8.003-.046-1.388-2.908-.855-2.869.272.217 6.422 3.145 12.169 6.449 17.543.601.976 3.344-.026 2.622-1.199-1.182-1.922-2.333-3.916-3.318-5.983.051-.042.086-.1.131-.146 3.246.573 6.441 1.278 9.585 2.302zm13.292-8.858c.203-.878.487-1.659.981-2.415.656-1.003 1.341-.781 2.31-.31 1.919.934 2.933 3.028 3.384 5.005.129.567 2.989-.144 2.847-.763-.683-3.001-2.667-5.565-5.892-5.812-2.736-.21-5.041 1.33-6.055 3.682a6.864 6.864 0 00-6.573.686c-.389-.452-.79-.894-1.205-1.317-.859-.876-3.562.26-2.616 1.224 1.884 1.921 3.583 4.099 4.313 6.728.347 1.249 3.193.483 2.847-.762-.45-1.622-1.244-3.096-2.216-4.45.074-.065.155-.123.221-.198 2.339-2.683 5.558.961 6.14 3.276.25.999 3.101.248 2.847-.763-.349-1.388-1.064-2.496-1.985-3.316.345-.133.607-.302.652-.495zm-342.901-12.684c1.415-1.622 3.231-1.056 4.914-.143.724.394 3.364-.697 2.292-1.279-5.225-2.835-10.972.416-11.977 6.083-.416 2.345.081 4.954 1.908 6.59 2.288 2.05 5.973 1.435 8.603.574 1.644-.537 1.348-1.778-.329-1.229-4.444 1.453-7.784-.994-7.427-5.723.135-1.784.841-3.526 2.016-4.873zm28.877 14.636c-.019.569 2.817.157 2.847-.763.093-2.726-.791-5.294-3.397-6.475-2.033-.922-4.489-.301-6.531.665a3.188 3.188 0 00-.994-1.165c-1.546-1.116-3.758-.764-5.597-.147-.312-.436-2.53-.087-2.806.642-.64 1.691-1.114 3.305-1.21 5.121-.033.624 2.797.207 2.847-.763.064-1.218.349-2.354.725-3.482.031-.013.066-.025.095-.038 1.275-.554 2.631-.991 3.741.102 1.169 1.151.834 3.289.514 4.693-.203.891 2.638.427 2.83-.421.236-1.035.397-2.244.219-3.344.075-.04.154-.075.226-.12 4.143-2.545 6.616 1.79 6.491 5.495zm148.386-129.563v-4.947c.34-2.026 1.224-3.737 3.25-3.239 3.377.83 3.224 5.637 2.773 8.167-.146.823 2.602.259 2.82-.461.648-2.15 2.804-7.487 5.945-6.793 3.106.688 2.354 5.886 1.989 7.886-.146.802 2.681.303 2.82-.461.705-3.873.569-9.068-4.552-8.767-2.561.15-4.66 1.503-6.237 3.368-.571-2.609-2.205-4.685-5.558-4.302-1.302.149-2.375.551-3.25 1.133v-.44c0-.588-2.847-.139-2.847.763v4.216c-.296 1.451-.283 3.048 0 4.64.128.724 2.847.042 2.847-.763zm-207.1 45.255c-.307-.251.07-.616.639-.884-.112-.453.202-.999 1.077-1.197 26.106-5.951 51.665-15.526 77.027-23.989a7747.828 7747.828 0 0039.964-13.473c5.419-1.841 11.205-4.65 16.872-5.623 1.824-.314 1.291 1.485-.035 1.907a12713.768 12713.768 0 01-29.141 47.452c-6.516 10.556-13.031 21.115-19.66 31.6-1.847 2.921-3.678 5.855-5.612 8.719-.386.57-.744 1.118-1.166 1.56l.502.305c.654.396-1.854 1.555-2.657 1.068a39000.915 39000.915 0 01-38.667-23.485 13073.501 13073.501 0 01-27.033-16.473c-3.939-2.408-8.521-4.561-12.11-7.487zm79.392 45.567c-.099-.008-.189-.009-.28-.011l.045.027a1.05 1.05 0 01.235-.016zM99.98 156.636c3.662 2.803 8.143 4.954 12.035 7.333a13853.25 13853.25 0 0026.396 16.084 44580.278 44580.278 0 0036.39 22.104c.048-.068.095-.132.147-.21a178.99 178.99 0 002.098-3.192 955.12 955.12 0 006.715-10.595c6.447-10.289 12.83-20.617 19.201-30.953a13301.262 13301.262 0 0025.892-42.18l-1.977.666c-4.419 1.496-8.835 2.999-13.252 4.499a7254.243 7254.243 0 01-39.856 13.423c-24.306 8.094-48.79 17.216-73.789 23.021zm38.379 4.166c-.201-.146-.029-.374.306-.591-.001-.325.328-.695 1.1-.874 10.62-2.464 21.014-6.315 31.341-9.763 7.521-2.512 15.098-5.798 22.804-7.687 1.472-.361 1.952.613.957 1.159a4962.087 4962.087 0 01-11.796 19.208c-2.563 4.15-5.123 8.302-7.728 12.425-.692 1.095-1.58 3.226-2.719 4.37.374.374-1.959 1.447-2.7.998-10.438-6.33-21.704-12.057-31.565-19.245zm3.438-.493c9.059 6.489 19.221 11.823 28.827 17.536.208-.268.409-.524.517-.691a454.631 454.631 0 002.712-4.287c2.55-4.073 5.078-8.16 7.599-12.251a5937.328 5937.328 0 0010.22-16.648c-7.156 2.02-14.22 5.003-21.229 7.335-9.45 3.144-18.953 6.622-28.646 9.006zm406.637 301.966c-11.625 8.53-29.791 12.777-43.058 5.386a20.15 20.15 0 01-2.512-1.656c-38.552 8.105-78.029 11.903-117.306 14.153-104.462 5.987-209.847 1.466-313.892-9.773-8.302 1.922-17.623.791-25.146-2.284-15.76-6.438-28.683-23.273-22.711-41.021 2.374-7.056 7.089-12.33 12.802-15.211a.463.463 0 01-.134-.201c-.27-.892 2.007-2.925 2.469-3.462 2.613-3.046 5.301-6.026 7.997-8.997 8.743-9.635 17.618-19.152 26.539-28.622 19.128-20.303 38.278-40.738 58.595-59.868l.016-.012c-.41-.246-.506-.671.198-1.185 6.38-4.658 14.141-5.528 21.279-3.499 6.639-45.166 47.562-79.703 87.095-97.483.044-.157.083-.315.128-.472.056-.197.325-.365.673-.495.106-.538 1.111-1.306 1.886-1.316 9.699-.126 19.242-2.134 28.885-2.975.242-.021.482-.049.723-.069a182.57 182.57 0 01-.698-2.372c-2.176 1.725-5.058 2.512-7.862 1.754-3.379-.913-7.297-3.634-7.495-7.509-.188-3.702 1.43-6.443 4.446-7.704l-.102-.018.108-1.029c-.86-2.57-.311-6.122-.554-8.674a.492.492 0 01-.045-.373c-.019-.139-.036-.281-.06-.412-.071-.372.206-.696.61-.927.201-13.868 6.997-29.303 20.087-35.104 4.088-1.811 8.26-2.859 12.505-3.394 1.755-1.244 6.037-.741 7.56-.719 5.881.086 12.048 1.084 17.444 3.504 14.948 6.702 19.574 21.259 19.349 36.617.773-.491 1.547-.983 2.325-1.464 3.194-1.977 6.803-4.997 10.464-6.383-.12-.288.203-.729 1.068-.995a63.734 63.734 0 017.048-1.762c.211-.062.433-.101.649-.112 3.369-.583 6.795-.824 10.118-.442.194.022.662.154.516.461-.918 1.942-2.267 3.678-3.724 5.301.326.353.277.901-.562 1.359a5.255 5.255 0 01-1.12.438l-.835.862c-1.343 1.384-4.478 3.469-5.146 5.324-.122.343-.673.602-1.256.739-.134.084-.32.171-.576.256-6.971 2.324-12.88 7.527-19.597 10.504 2.962 1.041 4.851 3.765 4.326 7.364-.426 2.923-2.325 5.251-4.774 6.675 7.055.701 13.991 2.132 21.112 2.214 1.073.013 1.001.583.519 1.085l.053.198c.53-.208 1.124-.301 1.481-.142 39.603 17.727 80.636 52.443 86.967 97.772a.749.749 0 01-.004.217 22.44 22.44 0 015.597 2.985c.442.322.397.69.123 1.002.031.02.064.036.091.061 20.532 19.332 39.888 39.985 59.203 60.519 8.824 9.381 17.618 18.793 26.257 28.343 2.61 2.887 5.231 5.769 7.747 8.739.426.503 2.442 2.305 2.195 3.121-.01.031-.028.06-.043.089 2.59 1.231 5.037 3.071 7.218 5.617 11.948 13.952 6.849 35.124-7.259 45.477zM437.595 282.854a238.802 238.802 0 00-8.736 5.616 119.772 119.772 0 017.065 15.741c.163.45-.117.84-.558 1.095 2.948-.476 5.943-.454 8.865.151-1.233-7.873-3.497-15.424-6.636-22.603zm-71.394-15.016c.063 3.614.096 7.268.069 10.94 5.411 3.274 10.774 6.689 15.91 10.404 3.663-4.193 6.776-8.818 10.037-13.324-7.117-6.7-14.624-13.526-22.776-19.041-1.509 3.583-2.657 7.251-3.24 11.021zm1.253-12.328a81.98 81.98 0 00-1.707-1.062c.079 1.538.15 3.075.209 4.61.46-1.193.961-2.376 1.498-3.548zm15.693 34.381c2.495 1.835 4.939 3.735 7.296 5.74 3.356 2.855 6.819 5.972 9.819 9.439.028-.019.049-.038.08-.056 4.167-2.493 8.212-5.17 12.22-7.903-5.388-6.589-11.329-12.73-17.508-18.578l-1.258-1.189c-2.955 4.1-5.875 8.227-9.228 12.022-.216.247-.83.439-1.421.525zm31.645 5.702c3.553-2.446 7.089-4.917 10.654-7.347-5.149-9.345-11.538-18.118-18.851-26.072-1.685 1.628-3.374 3.272-4.948 5.054-2.257 2.556-4.316 5.263-6.324 8.009a726.352 726.352 0 014.198 4.051c5.337 5.183 10.561 10.537 15.271 16.305zm-9.333-34.643c-7.813-8.298-16.627-15.674-26.078-21.826-3.283 5.032-6.511 10.208-9.002 15.575 8.372 5.375 16.127 12.183 23.391 19.06 1.661-2.224 3.382-4.4 5.265-6.446 2.048-2.226 4.273-4.27 6.424-6.363zm-27.832-22.94a133.935 133.935 0 00-14.198-7.8c1.057 7.164 1.741 14.403 2.173 21.625a84.904 84.904 0 012.816 1.644c2.639-5.327 5.931-10.462 9.209-15.469zm-17.358 86.022c-.039.121-.158.229-.32.324 15.017-1.37 29.981-3.267 44.771-5.975-2.809-9.345-10.691-16.723-18.049-22.695-6.47-5.253-13.351-9.937-20.428-14.322-.23 14.431-1.538 29.082-5.974 42.668zm47.361-6.21a397.8 397.8 0 009.219-1.867 31.898 31.898 0 014.628-4.436c-1.503-4.677-4.515-8.919-7.587-12.767-4.027 2.747-8.092 5.439-12.28 7.944 2.663 3.357 4.827 7.039 6.02 11.126zm16.349-8.079c3.065-1.966 6.445-3.402 9.929-4.16-.38-.065-.702-.251-.83-.608a117.873 117.873 0 00-6.619-14.874c-3.457 2.361-6.891 4.758-10.338 7.132 3.034 3.806 6.143 7.915 7.858 12.51zm-7.753-58.98c-1.987 3.693-4.755 6.646-7.67 9.505 7.466 8.023 14.003 16.884 19.288 26.348a233.103 233.103 0 018.867-5.682c-5.075-10.968-12.131-21.068-20.485-30.171zm-28.613-24.484c-2.083 3.522-4.457 7.099-6.857 10.748a145.67 145.67 0 0126.638 21.995c2.655-2.73 5.067-5.652 6.715-9.247.098-.214.366-.391.696-.524-8.134-8.609-17.399-16.306-27.192-22.972zm-28.229-15.88c.178.665.337 1.336.506 2.003a176.036 176.036 0 013.143 15.274c.285-.054.571-.043.813.068a137.21 137.21 0 0115.155 8.171c2.112-3.219 4.179-6.388 6.015-9.523.224-.383 1.048-.612 1.75-.683a192.342 192.342 0 00-26.902-15.085c-.16-.074-.32-.153-.48-.225zm-22.738-3.532a89.62 89.62 0 00-2.543-.241c-.385-.029-.619-.126-.745-.257-2.352.402-4.777.037-6.717-1.291a90.774 90.774 0 01-1.414 5.129c.383.013.664.125.669.362.1 4.894 1.102 9.825 1.945 14.758.392-.38 1.031-.711 1.55-.697 4.924.126 9.629 1.772 14.549 1.898 1.931.049.121 1.812-1.063 1.782-4.925-.127-9.629-1.772-14.55-1.899a2.22 2.22 0 01-.307-.027c.866 5.244 1.455 10.488.51 15.696.026 4.523.074 9.045-.018 13.559 5.631.249 11.267.41 16.91.428.267.001.483.046.66.119.577-5.452.607-10.987.432-16.243-.36-10.833-1.519-22.384-6.432-32.212-.016-.033-.009-.069.01-.109.044-.092.174-.199.36-.307a146.76 146.76 0 00-3.806-.448zm8.544 51.365a411.573 411.573 0 01-16.743-.421c-.148 4.703-.488 9.395-1.206 14.068 5.035.077 10.069.131 15.103.144a.088.088 0 010-.064c1.792-4.357 2.88-9.061 3.509-13.862a1.636 1.636 0 01-.663.135zm-59.64-41.655c-2.244-.406-4.337-1.469-5.875-3.002 3.968 9.314 9.97 17.725 20.164 19.385 3.059.498 5.759.105 8.148-.927.17-.374 1.004-.762 1.703-.878 5.181-3.095 8.739-9.336 11.18-15.8-1.584.92-3.562 1.328-5.905.905-3.965-.717-7.448-3.489-8.237-7.273-.057-.019-.114-.038-.164-.065a23.627 23.627 0 01-1.102-.659c.09 1.017.117 2.036-.05 3.06-.204 1.258-.793 2.589-2.183 2.886-1.711.365-2.911-.561-4.068-1.721-.957-.96 1.742-2.103 2.614-1.228.197.197.429.447.684.66.193-.96.207-1.954.171-2.928-.031-.849-.147-1.716-.253-2.584-2.29-1.265-4.789-2.257-6.112-1.154a1.52 1.52 0 01-.609.297c1.077 5.59-2.753 12.354-10.106 11.026zm23.501-8.41c.449 3.352 2.898 6.468 7.371 6.712 2.604.142 4.447-.992 5.553-2.687a83.884 83.884 0 001.233-4.173c.103-3.576-1.844-7.341-5.802-8.019-.353-.06-.546-.191-.621-.351-5.395-.239-8.006 3.831-7.797 7.833.224.21.214.453.063.685zm.007 24.808a17.766 17.766 0 01-6.533 1.432c-2.779.083-5.301-.287-7.607-1.008 3.076 5.875 4.825 12.542 5.786 19.336 1.073-4.34 2.537-8.706 4.709-12.505 1.222-2.135 2.669-4.088 4.397-5.754.219-.212.436-.425.664-.626a33.497 33.497 0 00-1.416-.875zm-21.066-32.658c-.354-.061-.546-.192-.621-.352-10.252-.454-10.446 14.68-.365 15.229 8.787.48 8.984-13.508.986-14.877zm-10.168 15.832c-.727 8.142-2.72 16.378-1.573 24.472a.571.571 0 01.267.554l-.026.304c5.457-2.012 9.756-6.675 14.783-9.595-6.027-3.202-10.287-9.107-13.451-15.735zm-2.47 36.119c7.516.388 15.025.907 22.534 1.443-.997-7.17-2.862-14.211-6.235-20.333-5.101 3.24-9.461 7.622-15.28 9.508-.284 3.105-.688 6.24-1.019 9.382zm-.215 2.167c-.503 5.498-.634 10.997.63 16.374 16.232.268 32.46.756 48.691 1.029.699-4.705 1.026-9.429 1.16-14.164-7.664-.376-15.321-.898-22.977-1.443a178.184 178.184 0 00-.836 4.498c-.023.137-.127.265-.276.379.187 3.032.269 6.036.286 8.943.006.942-2.844 1.415-2.847.763-.028-4.805-.224-9.864-.804-14.901-7.674-.547-15.347-1.081-23.027-1.478zm50.531 1.064c.072-4.105.038-8.216.014-12.328-5.165-1.412-9.154-5.02-13.448-8.1-.1-.072-.198-.146-.299-.218-.028.027-.054.059-.081.086-4.759 4.78-7.218 12.175-8.762 19.142 7.523.535 15.045 1.046 22.576 1.418zm.399-15.991c.239-3.173-.012-6.361-.451-9.553-.66-4.801-1.75-9.61-2.276-14.386-2.616 6.557-6.4 12.772-11.91 16.171 4.855 2.87 9.005 7.132 14.186 9.328l.055.026-.005-.935c0-.251.16-.47.401-.651zm38.02-67.985c.722-.821 1.425-1.658 2.061-2.54 1.459-2.025 1.527-2.211-1.255-2.086a42.972 42.972 0 00-4.072.384c-.742 1.713 1.415 4.247 3.266 4.242zm-11.746 3.839c.792 2.05 2.396 3.246 4.387 3.623.86-1.183 2.394-2.282 3.268-3.166a228.35 228.35 0 002.424-2.48 6.118 6.118 0 01-2.768-1.365c-1.196-1.039-2.105-2.619-1.787-4.173-1.462.299-2.917.64-4.354 1.045.341.003.53.07.347.233-1.712 1.535-2.353 4.117-1.517 6.283zm-15.993 4.399c-1.842 1.176-3.694 2.34-5.578 3.439-.583 3.029-1.107 6.07-1.632 9.111.055-.042.103-.089.161-.128 1.692-1.149 4.053-1.815 6.099-1.687l.01.001c6.096-2.477 12.599-7.784 19.263-10.439-2.289-.358-4.418-1.54-5.176-3.933-.512-1.617-.405-3.254.262-4.683-.563.338-1.127.675-1.689 1.017-2.444 1.492-4.88 2.996-7.311 4.507-.852.53-1.7 1.067-2.547 1.608l-.001.027c-.031.765-1.043 1.218-1.861 1.16zm-72.146-3.396l.99.081c1.305.108 2.598.239 3.849.652.201.019.361.073.449.174.135.053.272.096.406.157.495.224.351.708.084 1.045 1.705 3.722 5.512 4.923 9.57 5.388 6.172.708 12.409.686 18.608.998 2.867.145 13.697 1.263 22.027.251 3.278-.398 6.159-1.128 8.023-2.375 1.958-1.31 2.799-3.185 1.758-5.86-.244-.624 2.555-1.516 2.847-.763.558 1.435.619 2.664.333 3.739-.024.092-.034.189-.063.278l.748-.472c.498-.313.998-.625 1.494-.942.496-13.514-2.572-28.534-15.533-35.325-4.141-2.17-8.667-3.506-13.294-4.128-4.572-.287-9.212-.349-13.737.305-3.13.453-6.205 1.246-9.162 2.555-.742.329-1.456.695-2.155 1.081-11.424 6.297-17.13 19.895-17.23 32.792-.003.122-.012.246-.012.369zm10.368 21.817c.759 2.735 1.606 5.711 2.61 8.738.039-.42.098-.845.205-1.281.994-4.104 4.101-6.399 7.838-7.008a.666.666 0 01-.181-.483c.026-1.84.387-3.628.949-5.377.346-1.076 3.235-1.443 2.865-.292-.562 1.748-.923 3.535-.949 5.376-.003.236-.144.442-.354.613.398.007.798.026 1.201.067.478.049.66.238.66.464 2.829.68 4.676 2.426 5.632 4.583 2.127-1.314 4.682-.853 7.156.185.003-.131.003-.264.012-.396.083-1.224 2.975-1.67 2.879-.244-.048.699-.019 1.398.041 2.098.526.293 1.035.589 1.524.878.039-.258.079-.516.143-.779.877-3.619 3.397-5.833 6.543-6.724a.675.675 0 01-.152-.451c.026-1.84.388-3.628.949-5.377.346-1.076 3.235-1.443 2.864-.292-.562 1.748-.922 3.535-.948 5.376a.66.66 0 01-.095.317 13.73 13.73 0 012.207.047c.478.049.66.238.66.464 2.767.664 4.597 2.347 5.571 4.439l.063-.288c-.039-.061-.082-.116-.121-.178-.577-.941 2.198-1.824 2.653-1.084.026.044.057.086.084.131.189.047.302.136.271.279-.007.031-.015.063-.021.096 1.54 2.189 4.067 3.851 6.843 2.7 2.271-.941 4.486-2.972 4.858-5.529.381-2.611-.585-6.602-3.694-7.107-4.027-.656-4.679 1.79-6.769 4.279a.811.811 0 01-.177.148 2.536 2.536 0 01-.014.077c-.148.824-2.884.968-2.846.763.775-4.306 1.477-8.626 2.294-12.926-7.231 2.675-19.399 2.161-22.7 2.044-9.305-.329-19.159-.046-28.368-1.555-1.287-.212-2.54-.48-3.71-.86-.118 2.67.061 5.313.405 7.963.136 1.047-1.568 1.701-2.404 1.33-.331.008-.616-.062-.766-.239-1.319-1.572-2.109-3.867-4.229-4.514a7.86 7.86 0 00-1.329-.287c-.664.309-1.579.444-2.009.097-1.189.309-2.149 1.126-2.562 2.663-.319 1.189-.614 2.525-.321 3.752 1.265 5.299 8.277 8.888 11.81 3.753-.027-.165.134-.336.396-.489.707-.578 2.841-.789 2.533.04zm-13.932 8.22c-2.447 5.165-4.211 10.724-5.438 16.407.413-.328 1.024-.614 1.467-.614h17.079c.29 0 .483.04.612.102.425-3.229.804-6.45.861-9.655.006-.328.309-.598.715-.791l.01-.006-.009-.023a101.425 101.425 0 01-2.441-6.886 1.902 1.902 0 01-.288.045c-4.206.318-8.388.87-12.568 1.421zm13.623 16.626c-.399.383-1.123.755-1.629.755h-17.08c-.24 0-.418-.025-.545-.068-1.074 5.231-1.703 10.55-1.994 15.746-.235 4.19-.32 8.557-.011 12.891.223-.395.687-.716 1.327-.714 6.081.019 12.153.207 18.222.491.347-3.241.756-6.474 1.027-9.676-1.142-6.43-.183-12.937.683-19.425zm-1.933 31.268c-6.072-.284-12.147-.472-18.232-.491-.482-.001-.812-.138-1.009-.341.525 6.01 1.875 11.916 4.713 17.165 4.98.01 9.96.064 14.939.137-1.135-5.418-.937-10.947-.411-16.47zm-36.012 14.305c-.286 19.283-.013 39.87 6.036 58.383.037.112-.06.237-.231.359 7.728.267 15.46.444 23.191.521-1.191-6.187-3.76-12.339-4.235-18.643-.802-.288-.857-1.215.174-1.602.558-.556 1.941-.815 2.43-.518 24.371-4.73 50.749-3.709 75.181-.298.783.109.964.476.824.861.74-.128 1.453-.001 1.347.533-1.106 5.601-1.543 12.885-4.759 17.742a.833.833 0 01-.186.184 739.423 739.423 0 0021.378-1.544c.001-.009-.004-.016-.001-.026 4.643-14.217 5.936-29.704 6.023-44.877-.242-.146-.482-.295-.724-.441-.144-.087.215-.358.724-.601.005-2.285-.013-4.561-.054-6.823-.261-.021-.431-.087-.423-.205.075-1.044.192-2.078.353-3.105a463.682 463.682 0 00-.09-3.181c-.591-18.826-2.17-38.147-7.33-56.338-4.263-.145-8.467-.716-12.675-1.293 4.784 10.01 5.988 21.894 6.121 32.837.126 10.223-.3 21.322-4.243 30.91-.114.277-.601.481-1.137.602 1.781.059.081 1.855-1.124 1.853-5.833-.006-11.664-.075-17.494-.166-.204.02-.401.02-.57-.008-23.004-.368-46.001-1.212-69.009-1.236-.897-.001-.994-.404-.723-.835-5.574-10.088-5.767-22.951-4.722-34.133.978-10.45 3-21.209 7.546-30.753-4.801.621-9.608 1.156-14.455 1.29-5.468 19.468-6.845 40.428-7.143 60.551zm31.924 58.913a.519.519 0 01-.077.367c12.888.09 25.776-.07 38.643-.474 8.885-.281 17.801-.643 26.722-1.136-.018-.096.011-.211.103-.35 1.706-2.578 2.242-6.22 2.896-9.183.59-2.668 1.107-5.349 1.637-8.03a1.39 1.39 0 01-.335 0c-23.998-3.35-49.936-4.472-73.869.191.571 6.289 3.153 12.433 4.28 18.615zm-54.208-33.357c5.631-5.786 11.753-11.205 18.613-15.42.12-.074.383-.153.693-.218.003-1.664.018-3.322.042-4.974a.607.607 0 01-.203-.2c-2.499-4.395-4.587-8.974-6.521-13.622-7.385 6.269-13.917 14.157-19.771 21.587 2.083 4.431 4.409 8.74 7.147 12.847zm-9.137-10.31l-.159.202c-5.524 7.069-11.309 14.73-15.715 22.947a830.014 830.014 0 018.561 7.88c3.393-6.064 7.985-11.6 12.524-16.567.633-.693 1.278-1.379 1.924-2.066-2.729-3.96-5.053-8.118-7.135-12.396zm28.602-16.053c.01-.407.018-.817.029-1.222.109-4.074.26-8.175.471-12.287a61.336 61.336 0 00-4.977 3.516c1.385 3.379 2.852 6.721 4.477 9.993zm.536-14.198c.04-.73.092-1.46.135-2.19.3-5.048.7-10.104 1.27-15.139.237-2.103.499-4.203.799-6.295-5.114 2.696-9.945 5.94-14.506 9.575 2.374 5.598 4.488 11.314 6.767 16.958a56.976 56.976 0 013.754-2.541c.254-.158 1.147-.336 1.781-.368zm-14.664-12.12c-7.454 6.276-14.171 13.543-20.236 21.037 2.202 5.708 4.389 11.421 6.901 16.973 6.018-7.338 12.544-15.093 20.054-21.132-2.291-5.605-4.391-11.294-6.719-16.878zm-22.339 23.676c-.418.532-.84 1.064-1.25 1.596-7.096 9.203-13.653 19.022-19.022 29.415a565.18 565.18 0 0110.539 9.277c4.751-8.443 10.865-16.32 16.711-23.478-2.565-5.485-4.784-11.14-6.978-16.81zm-21.441 33.332c-2.787 5.627-5.22 11.416-7.189 17.368a28.959 28.959 0 013.367 4.991c.245.465.485.933.698 1.41a2.44 2.44 0 01.307-.049.829.829 0 01.17-.004c2.39.278 4.781.541 7.174.798 1.262-5.249 3.348-10.341 5.931-15.254a580.118 580.118 0 00-10.458-9.26zm6.547 24.727a823.5 823.5 0 0011.435 1.111c.71-2.485 1.676-4.896 2.84-7.233-.155-.021-.287-.066-.376-.148a897.82 897.82 0 00-8.222-7.596c-2.133 4.299-3.861 8.744-4.946 13.336-.05.208-.347.393-.731.53zm14.022 1.345a870.909 870.909 0 0043.194 2.692c-4.822-15.035-5.989-31.485-6.011-47.497v-.009c-3.746 2.431-7.298 5.232-10.668 8.248a120.838 120.838 0 00-7.879 7.749c-.071.162-.223.313-.419.443-.896.973-1.778 1.953-2.641 2.938-6.463 7.383-13.041 15.773-15.576 25.436zm18.282-99.51c.027.03.058.056.078.092 2.433 3.994 4.48 8.163 6.347 12.414 4.71-3.679 9.7-6.964 15.012-9.681a1.73 1.73 0 01.707-.189c.885-5.733 2.025-11.41 3.495-16.984a190.918 190.918 0 00-25.639 14.348zm-23.275 18.548c2.621 5.349 4.852 10.889 7.015 16.458 6.157-7.368 12.879-14.472 20.325-20.612-1.887-4.383-3.955-8.681-6.408-12.807-7.378 5.081-14.441 10.751-20.932 16.961zm-28.811 40.782c.05.02.096.043.136.073a405.566 405.566 0 0112.251 10.006c5.541-10.534 12.282-20.494 19.603-29.701.563-.709 1.136-1.415 1.709-2.121-2.21-5.704-4.464-11.389-7.083-16.899-11.318 11.275-20.693 24.246-26.616 38.642zm-6.339 22.472c3.37 1.3 6.541 3.25 9.285 5.758.353.323.705.659 1.052 1.005 2.011-5.761 4.444-11.393 7.213-16.875a420.329 420.329 0 00-12.157-10.003c-2.392 6.28-4.135 12.818-5.082 19.603-.026.192-.142.363-.311.512zM64.62 468.274c4.286-.61 8.228-2.467 10.739-6.457 1.794-2.851 2.794-6.074 3.187-9.391-4.195.905-8.324 2.095-12.552 2.848-.605.107-1.055-.059-1.33-.325-11.728 1.959-23.866-17.573-11.656-24.815.317-.187.752-.25 1.167-.225 3.11-2.283 5.684-5.137 7.723-8.459.259-.421 1.48-.737 2.188-.662-3.355-4.27-7.65-7.581-12.552-8.966-17.271-4.876-28.955 14.035-25.511 29.338 2.848 12.657 12.325 22.072 24.507 26.025.53-.21 1.108-.377 1.38-.345 4.234.498 8.473.962 12.71 1.434zm-.103-46.921c-.003.006-.003.01-.007.015-2.472 4.03-5.728 7.278-9.641 9.853l-.025.018c-6.764 4.012-4.32 12.314.305 17.085 2.215 2.285 5.712 5.163 9.175 4.76 4.112-.48 6.714-4.119 7.197-8.013.952-7.669-1.832-16.84-7.004-23.718zm5.67 30.985c2.844-.668 5.67-1.411 8.53-2.004a32.395 32.395 0 00-.501-7.093c-1.352-7.52-4.732-14.941-9.768-20.777 6.112 9.464 9.879 23.3 1.739 29.874zm7.723 13.828c5.359-2.985 7.874-8.02 11.347-12.758a1388.388 1388.388 0 0135.354-46.146c8.053-10.069 15.959-19.932 22.512-31.091 7.171-12.212 13.511-24.911 20.973-36.951 4.86-7.84 2.879-16.139-2.319-22.352a.711.711 0 01-.21-.247 27.73 27.73 0 00-4.815-4.408 28.624 28.624 0 00-3.937-2.388c-7.105-3.572-15.623-4.132-22.363.575.236.128.267.357-.112.714-20.187 19.007-39.224 39.3-58.22 59.481-8.741 9.283-17.447 18.602-26.016 28.044-2.675 2.948-5.353 5.899-7.954 8.914-.41.475-2.137 2.395-2.667 3.095a22.49 22.49 0 0110.528-1.022c.318-.164.687-.248 1.044-.18 17.212 3.279 29.61 20.102 30.482 37.236.056 1.1.057 2.22.007 3.342.923.322 1.038 1.433-.126 1.793-.544 5.404-2.51 10.705-6.823 14.226a18.751 18.751 0 01-4.754 2.818l.316.036c2.71-.501 5.33-1.382 7.753-2.731zm424.122-.834c-3.048-2.61-5.055-5.841-7.55-9.299-4.556-6.314-9.266-12.52-13.977-18.718-6.668-8.773-13.386-17.508-20.232-26.141-7.425-9.36-15.215-18.351-21.543-28.525-7.493-12.047-13.875-24.723-21.04-36.96-4.547-7.766-9.268-14.499-4.887-23.562a28.795 28.795 0 013.217-5.151 404.526 404.526 0 01-8.418 1.711c-.579.464-2.28.853-2.609.501-32.91 6.117-66.698 8.321-100.051 9.315-36.81 1.097-73.74.335-110.446-2.844-1.838-.159-3.676-.316-5.513-.488a809.546 809.546 0 01-15.995-1.65c1.166 3.119 1.564 6.444.666 9.738-1.466 5.38-5.272 10.068-7.998 14.868-3.369 5.934-6.613 11.936-9.933 17.895-6.596 11.839-13.555 23.32-22.188 33.796-6.697 8.128-13.192 16.424-19.626 24.761-6.273 8.128-12.503 16.293-18.63 24.532-2.879 3.873-5.375 8.165-8.318 11.951-3.125 4.019-7.283 6.726-11.916 8.348a2167.702 2167.702 0 00127.379 9.762c55.826 2.621 111.817 3.326 167.66.78 44.142-2.012 88.607-5.627 131.948-14.62zm6.082-1.29c-2.781-3.418-4.199-7.705-4.606-12.103-1.228-.267-.897-1.265-.115-1.768-.043-1.35 0-2.7.127-4.029 1.599-16.859 13.473-33.35 30.679-36.628.488-.094.869-.008 1.146.158 3.006-.579 6.068-.591 9.032.088-.758-.852-1.607-1.75-1.839-2.017-2.687-3.087-5.429-6.125-8.184-9.151-8.665-9.522-17.447-18.938-26.279-28.305-18.81-19.949-37.64-40.024-57.61-58.826-.218-.206-.117-.448.146-.667-6.77-4.898-15.602-4.687-22.916-1.138-.639.31-1.265.648-1.878 1.008-.433.254-.863.515-1.281.793-.027.218-.412.452-.897.629-4.319 3.133-7.688 7.546-9.091 12.757-2.263 8.415 2.604 14.121 6.61 21.113 4.804 8.383 9.31 16.933 14.123 25.312 8.89 15.476 19.889 28.838 30.853 42.818a1680.789 1680.789 0 0126.243 34.322c2.945 3.961 5.507 8.672 8.681 12.41a22.127 22.127 0 004.233 3.821c.941-.199 1.885-.391 2.823-.597zm7.831-40.35a29.932 29.932 0 012.572-3.677c-6.582 6.368-10.904 15.299-11.953 24.311a37.495 37.495 0 00-.234 5.911c2.532.519 5.036 1.159 7.548 1.764a9.99 9.99 0 01-2.85-4.839c-1.978-7.764.947-16.759 4.917-23.47zm-2.57 44.655a16.053 16.053 0 01-4.721-3.66 3.2 3.2 0 01-.629.218c-.588.13-1.178.248-1.765.376 2.192 1.374 4.599 2.388 7.115 3.066zm45.788-37.629c-1.908-9.52-9.165-19.238-19.672-19.711-11.235-.505-19.736 8.652-23.517 18.427-1.779 4.598-3.431 10.137-2.506 15.115.792 4.262 4.062 9.378 9.183 8.473 8.532-1.507 16.304-14.768 8.341-20.866a.902.902 0 01-.408-.106c-4.226-2.596-7.621-6.038-10.213-10.259-.341-.554 2.341-1.588 2.847-.763a29.926 29.926 0 008.21 8.768c.289-.023.559.009.757.126 10.903 6.467 2.12 20.352-6.579 24.103a10.876 10.876 0 01-5.375.822c-.367.346-.921.583-1.461.487-4.127-.736-8.16-1.886-12.249-2.783.467 3.809 1.719 7.488 4.255 10.385 5.325 6.08 13.473 6.344 20.89 4.773.419-.088.762-.045 1.026.07 16.139-4.687 30.106-18.93 26.471-37.061zM405.501 135.177c-1.229-2.575-8.089-8.533-3.257-10.792 2.413-1.127 5.405-.986 7.211 1.115 1.496 1.741 2.437 4.074 3.974 5.801.041-.008.082-.013.124-.017.669-.507 1.838-.652 2.264.031 1.276 2.044 6.12 5.042 4.586 7.992 1.574 0-.34 1.497-1.303 1.556 3.507-.219.703-1.626 2.439-.687.418.226.838.447 1.263.657 1.269.626 2.548 1.23 3.833 1.822 4.146 1.91 8.315 3.769 12.47 5.66 6.241 2.841 12.525 5.669 18.637 8.807a.748.748 0 010-.693c.268-.554.486-1.121.675-1.699-3.309-1.259-6.481-2.902-9.97-3.618-1.654-.339.736-1.843 1.718-1.641 2.994.615 5.768 1.881 8.577 3.046.42-1.191 2.407-1.123 3.351-.776 1.046.386 2.456 1.249 3.433 1.298.24.011.5.102.682.248.395.122.655.408.566.895a21.047 21.047 0 01-.38 1.65c5.317.779 10.338 2.703 15.405 4.412 1.615.544-.784 1.922-1.728 1.604-4.695-1.583-9.352-3.34-14.237-4.212a31.328 31.328 0 01-1.328 3.152c.219.125.44.245.657.371.253.147.31.319.249.491.971-.09 1.973.428 1.218 1.404-1.556 2.012-1.942 4.696-3.249 6.885.596.664-1.737 1.617-2.455 1.2-8.72-5.063-18.082-9.018-27.343-12.966-3.3-1.406-6.617-2.784-9.899-4.234.848 3.35 1.265 7.75 1.517 8.925 1.996 9.301 3.975 18.638 6.826 27.722.148.471-.518.907-1.245 1.097-.129.332-.533.625-.81.74-.614.254-1.235.48-1.861.681.693 2.234.88 4.597 1.742 6.78.483 1.22-2.346 2.031-2.847.763-.873-2.211-1.054-4.605-1.769-6.864a14.647 14.647 0 01-3.659.116c-.976-.097-1.006-.592-.64-1.042-2.982-9.552-4.932-19.436-6.941-29.228-.892-4.35-1.748-8.707-2.69-13.046-.173-.797-1.09-4.423-1.109-5.259-.339-.035-.583-.156-.601-.386a.92.92 0 01-.297-.169c-2.323-2.095-4.094-4.607-5.897-7.145-.307-.434-.033-.977.37-1.239a43.043 43.043 0 011.812-1.1.364.364 0 01-.084-.108zm53.366 22.52a174.8 174.8 0 013.338 1.79c.68-1.517 1.249-3.097 1.587-4.721-.672-.149-1.318-.442-1.943-.707-.112-.047-.225-.093-.337-.142-.27.989-.583 1.962-1.031 2.89-.285.592-.97.896-1.614.89zm-40.285-16.493c-1.725 1.275-3.914 2.044-5.878 2.952.666.905.806 2.756.979 3.52.968 4.284 1.816 8.596 2.695 12.898 2.161 10.567 4.201 21.251 7.421 31.559 1.724-.015 3.362-.428 4.991-1.101.081-.033.172-.065.267-.095-2.54-8.178-4.389-16.561-6.189-24.926-.743-3.454-1.451-6.916-2.247-10.357-.104-.447-.59-2.271-.804-3.371-.53-.291-.937-.613-.943-.931-.007-.353.232-.577.512-.745.492-.532 1.434-.837 2.131-.676.497.115.927.65 1.302 1.435 1.5.733 4.054 1.636 4.464 1.813 3.589 1.54 7.19 3.051 10.778 4.594 7.829 3.371 15.711 6.771 23.173 10.918 1.069-2 1.49-4.3 2.808-6.183-.453.118-.902.142-1.152-.004-9.381-5.461-19.403-9.84-29.282-14.306-4-1.808-8.031-3.569-11.982-5.484-.553-.268-2.183-.807-3.044-1.51zm-12.062-4.102c1.37 1.94 2.766 3.875 4.465 5.535 2.032-.984 4.297-1.682 6.062-3.075 2.04-1.607-1.647-4.523-3.274-6.286-2.454 1.213-4.916 2.401-7.253 3.826zm-.882-6.547c.798 1.092 1.75 2.168 2.428 3.359.938-.493 1.883-.971 2.832-1.442-1.045-1.154-1.785-2.613-2.615-3.902-.332-.518-4.372-5.566-4.868-3.045-.341 1.727 1.286 3.747 2.223 5.03zM290.149 381.574c-.797.261-1.723.225-1.723-.267v-3.374c0-1.092 2.847-1.626 2.847-.763v3.109l.015-.001c25.5-.003 51.001-.235 76.5-.504 13.025-.136 26.05-.284 39.074-.526 4.177-.079 8.355-.158 12.531-.291 1.337-.043 2.675-.085 4.011-.159.103-.005.193-.012.282-.019-10.213-7.961-17.221-19.091-26.216-28.306-.314.165-.674.261-1.013.218-14.74-1.833-29.542-2.4-44.362-2.454-.017 4.583-.088 9.166-.095 13.751 0 .152-.072.29-.184.416 1.1-.104 2.212-.046 3.309.275.598.175-.108.575-.362.691-.53.24-1.396.549-1.987.376-2.075-.606-3.584.041-5.333 1.169-.556.36-1.356.55-2.013.54-.553-.009-.594-.288-.153-.573 1.221-.788 2.573-1.472 3.982-1.936a.247.247 0 01-.106-.197c.007-4.838.089-9.675.1-14.513-18.097.011-36.218.712-54.289.759-2.021 5.128-2.249 10.764-3.602 16.089 1.21.105 2.392.324 3.457.798 1.139.508-1.476 1.69-2.278 1.332-2.124-.945-4.871-.66-7.145-.655-.418 0-1.156-.232-.756-.776.399-.541 1.249-.759 1.884-.761.697-.001 1.425-.019 2.165-.024 1.27-5.32 1.53-10.915 3.651-15.987-14.984.059-29.961.657-44.938 1.208a.274.274 0 01-.001.114c-2.712 11.172-7.58 21.667-10.121 32.894a.414.414 0 01-.053.121h2.23c1.909 0-.296 1.341-1.181 1.341h-9.278c-1.909 0 .296-1.341 1.181-1.341h4.363c2.56-11.1 7.351-21.501 10.038-32.562.044-.184.234-.348.49-.483-18.78.68-37.561 1.218-56.35.439-3.041 12.108-10.26 22.386-15.322 33.701 2.591.051 5.144.236 7.697.842 1.55.369-1.002 1.584-1.784 1.398-2.972-.706-5.921-.825-8.963-.826-1.455 0-.578-.825.342-1.223 5.347-11.861 13.025-22.6 15.693-35.54.165-.801 2.997-1.282 2.824-.443-.009.042-.021.082-.028.123 36.147 1.556 72.372-1.454 108.527-1.737 33.226-.26 66.692-2.412 99.772 1.705.268.033.46.1.601.186.644-.25 1.454-.276 1.88.158 9.412 9.604 16.578 21.391 27.627 29.323 1.332.957-1.157 2.397-2.192 1.654-.113-.081-.22-.169-.332-.25-1.108.35-2.639.273-3.488.311-3.537.159-7.079.236-10.618.312-12.913.276-25.828.43-38.743.572-27.356.302-54.71.56-82.064.566zm133.349-2.272c.086-.112.258-.218.475-.307l-.095-.072a2.088 2.088 0 00-.38.379zm-263.267 20.083c3.307.002 6.57.071 9.807.819.824.191 3.346-1.084 1.771-1.448-3.439-.794-6.923-.864-10.437-.866-.985 0-3.06 1.494-1.141 1.495zm118.387-.623h-2.842c-.011-1.017-2.089-.755-2.691 0h-2.901c-.948 0-3.072 1.437-1.156 1.437h3.815c-.861 11.949-2.335 23.796-4.637 35.559-30.352-.031-60.706-.421-91.052-.947-8.867-.153-17.797-.09-26.654-.655.028-.056.057-.106.078-.185.243-.926.585-1.83.903-2.731 1.107-3.134 2.361-6.218 3.624-9.291 3.021-7.352 6.196-14.816 10.401-21.584.717-1.154-2.154-.892-2.658-.081-3.87 6.229-6.801 13.055-9.664 19.79-1.921 4.518-5.093 10.043-5.613 15.005-.037.344.226.571.557.617 4.822.657 9.889.408 14.741.515 10.893.238 21.787.404 32.681.559 24.782.353 49.568.643 74.353.65 1.089 0 3.024-1.652 1.098-1.653h-.029a.67.67 0 00.065-.178c2.299-11.707 3.773-23.499 4.642-35.39h1.786c.946-.001 3.069-1.437 1.153-1.437zm-55.977 33.809c-.17 1.019 2.688.508 2.839-.392 1.693-10.154 3.44-20.291 5.887-30.296h.549c.942 0 3.073-1.43 1.157-1.43h-9.278c-.942 0-3.073 1.43-1.157 1.43h6.112a.683.683 0 00-.205.324c-2.456 10.026-4.207 20.185-5.904 30.364zm199.04-40.57c-.75.234-1.266.012-1.475-.359-.44-.011-.881-.02-1.321-.012-1.795.029-3.59.095-5.383.175-5.394.242-10.784.554-16.174.87-11.666.682-23.335 1.473-35.016 1.867-14.738.497-29.498.412-44.241.254-6.002-.064-12.002-.155-18.004-.23-1.745-.021-3.491-.05-5.236-.047-.764.001-1.139.081-1.265.117.118-.05.436-.223.791-.672l-.015-.059a2.443 2.443 0 01-1.363.66v3.125c0 1.316-2.889 1.727-2.889.204v-5.059c0-1.284 2.741-1.7 2.877-.307 1.87-.633 5.265-.032 6.546-.016 6.728.084 13.456.19 20.185.255 16.597.158 33.215.243 49.798-.561 13.905-.674 27.792-1.654 41.696-2.325 3.47-.167 7.407-.791 10.87-.229 2.13.347 1.097 1.889-.381 2.349zm-.511-1.91c-.923.287-1.101.564-1 .803.132-.324.454-.633 1-.803zm5.896-4.487c0-.584-2.848-.136-2.847.762.001 2.459.023 4.958 1.775 6.872.533.582 3.205-.43 2.673-1.01-1.651-1.801-1.599-4.326-1.601-6.624zm-153.594 62.291c.529.6-2.155 1.596-2.673 1.01a5.882 5.882 0 01-.714-1.034c-.613.008-.964-.37-.979-.813l-.079-.011a31.506 31.506 0 00-1.408-.186 105.307 105.307 0 00-4.892-.387c-4.563-.261-9.131-.414-13.7-.519-11.919-.272-23.851-.324-35.771-.066-13.674.293-27.293.381-40.964-.23a865.121 865.121 0 01-16.256-.882c-1.594-.102-3.186-.207-4.78-.308-.789 1.267-1.779 2.404-2.756 3.527-.866.997-3.583.492-2.394-.877.766-.881 1.622-1.792 2.278-2.789a1.207 1.207 0 01-.282-.064c-.76-.242-.75-1.078-.186-1.515-.212-.229-.35-.536-.371-.994-.056-1.246 2.562-1.684 2.857-.392.092.031.185.064.279.094.403.127.835.367 1.052.749 1.289.119 2.575.363 3.472.42 6.522.419 13.047.799 19.578 1.062 16.5.664 32.925.104 49.423.019 12.874-.068 25.796-.052 38.653.685 1.82.104 4.218-.02 6.314.307-.084-.874-.088-1.772-.089-2.663-.001-.899 2.847-1.346 2.847-.762.007 2.274-.058 4.806 1.541 6.619zm-4.02-1.62l-.014-.056c-.106.094-.155.184-.161.268.048-.073.106-.143.175-.212z" fill="#454A55"/></svg>
